<svg width="40" height="40" viewBox="0 0 40 40" fill="none" xmlns="http://www.w3.org/2000/svg">
<path d="M15 36.6667H25C33.3333 36.6667 36.6666 33.3333 36.6666 25V15C36.6666 6.66666 33.3333 3.33333 25 3.33333H15C6.66665 3.33333 3.33331 6.66666 3.33331 15V25C3.33331 33.3333 6.66665 36.6667 15 36.6667Z" stroke="#31343C" stroke-width="2" stroke-linecap="round" stroke-linejoin="round"/>
<path d="M28.3331 19.7333H23.8665C22.6831 19.7333 21.8831 18.8333 21.8831 17.75V15.2666C21.8831 14.1833 22.6831 13.2833 23.8665 13.2833H26.3498C27.4331 13.2833 28.3331 14.1833 28.3331 15.2666V19.7333ZM28.3331 19.7333C28.3331 24.3833 27.4665 25.1668 24.8498 26.7168M18.1 19.7333H13.6333C12.45 19.7333 11.65 18.8333 11.65 17.75V15.2666C11.65 14.1833 12.45 13.2833 13.6333 13.2833H16.1166C17.2 13.2833 18.1 14.1833 18.1 15.2666V19.7333ZM18.1 19.7333C18.1 24.3833 17.2333 25.1668 14.6167 26.7168" stroke="#31343C" stroke-width="2" stroke-linecap="round" stroke-linejoin="round"/>
</svg>
